v -0.500000000000000 -0.500000000000000 -0.500000000000000
v -0.500000000000000 0.500000000000000 -0.500000000000000
v 0.500000000000000 0.500000000000000 -0.500000000000000
v 0.500000000000000 -0.500000000000000 -0.500000000000000
v -0.500000000000000 -0.500000000000000 0.500000000000000
v -0.500000000000000 0.500000000000000 0.500000000000000
v 0.500000000000000 0.500000000000000 0.500000000000000
v 0.500000000000000 -0.500000000000000 0.500000000000000
vn -1.000000000000000 0.000000000000000 -0.000000000000000
vn 0.000000000000000 1.000000000000000 -0.000000000000000
vn 1.000000000000000 0.000000000000000 -0.000000000000000
vn 0.000000000000000 -1.000000000000000 -0.000000000000000
vn -0.000000000000000 0.000000000000000 -1.000000000000000
vn -0.000000000000000 0.000000000000000 1.000000000000000
o part_0
f 2//1 1//1 5//1 6//1
f 6//2 7//2 3//2 2//2
f 7//3 8//3 4//3 3//3
f 1//4 4//4 8//4 5//4
f 1//5 2//5 3//5 4//5
f 8//6 7//6 6//6 5//6
