v 0.000000000000000 0.000000000000000 0.000000000000000
v 29.423555374145508 -5.852709293365479 0.000000000000000
v 27.716381072998047 -11.480502128601074 0.000000000000000
v 24.944082260131836 -16.667104721069336 0.000000000000000
v 21.213197708129883 -21.213199615478516 0.000000000000000
v 16.667100906372070 -24.944084167480469 0.000000000000000
v 11.480498313903809 -27.716381072998047 0.000000000000000
v 5.852705001831055 -29.423551559448242 0.000000000000000
v -0.000003337860107 -29.999990463256836 0.000000000000000
v -5.852711200714111 -29.423547744750977 0.000000000000000
v -11.480503082275391 -27.716373443603516 0.000000000000000
v -16.667102813720703 -24.944076538085938 0.000000000000000
v -21.213197708129883 -21.213191986083984 0.000000000000000
v -24.944080352783203 -16.667095184326172 0.000000000000000
v -27.716375350952148 -11.480493545532227 0.000000000000000
v -29.423545837402344 -5.852702617645264 0.000000000000000
v -29.999984741210938 0.000004768371582 0.000000000000000
v -29.423542022705078 5.852711677551270 0.000000000000000
v -27.716367721557617 11.480501174926758 0.000000000000000
v -24.944070816040039 16.667100906372070 0.000000000000000
v -21.213186264038086 21.213193893432617 0.000000000000000
v -16.667091369628906 24.944074630737305 0.000000000000000
v -11.480489730834961 27.716369628906250 0.000000000000000
v -5.852699756622314 29.423540115356445 0.000000000000000
v 0.000006675720215 29.999979019165039 0.000000000000000
v 5.852712154388428 29.423534393310547 0.000000000000000
v 11.480501174926758 27.716360092163086 0.000000000000000
v 16.667098999023438 24.944063186645508 0.000000000000000
v 21.213191986083984 21.213180541992188 0.000000000000000
v 24.944072723388672 16.667085647583008 0.000000000000000
v 27.716365814208984 11.480484962463379 0.000000000000000
v 29.423534393310547 5.852695941925049 0.000000000000000
v 29.999971389770508 -0.000009059906006 0.000000000000000
vn -0.000000000000000 -0.000000000000000 1.000000000000000
vn -0.000000000000000 -0.000000000000000 0.999999940395355
o part_0
f 33//1 1//1 2//1
f 2//2 1//2 3//2
f 3//1 1//1 4//1
f 4//1 1//1 5//1
f 5//2 1//2 6//2
f 6//1 1//1 7//1
f 7//1 1//1 8//1
f 8//1 1//1 9//1
f 9//1 1//1 10//1
f 10//1 1//1 11//1
f 11//1 1//1 12//1
f 12//1 1//1 13//1
f 13//1 1//1 14//1
f 14//1 1//1 15//1
f 15//1 1//1 16//1
f 16//1 1//1 17//1
f 17//1 1//1 18//1
f 18//1 1//1 19//1
f 19//1 1//1 20//1
f 20//1 1//1 21//1
f 21//1 1//1 22//1
f 22//1 1//1 23//1
f 23//1 1//1 24//1
f 24//1 1//1 25//1
f 25//1 1//1 26//1
f 26//1 1//1 27//1
f 27//1 1//1 28//1
f 28//1 1//1 29//1
f 29//1 1//1 30//1
f 30//1 1//1 31//1
f 31//1 1//1 32//1
f 32//1 1//1 33//1
